<svg version="1.1" id="Layer_1" xmlns="http://www.w3.org/2000/svg" xmlns:xlink="http://www.w3.org/1999/xlink" x="0px" y="0px"
	 width="100%" viewBox="0 0 128 128" enable-background="new 0 0 128 128" xml:space="preserve">
<path fill="#FCFBFB" opacity="1.000000" stroke="none" 
	d="
M54.174751,128.666534 
	C50.969406,129.000000 47.938812,129.000000 44.454109,129.000000 
	C41.959469,126.599258 42.693253,123.684792 42.509136,120.940834 
	C42.308525,117.951050 43.011055,114.850876 41.457222,110.960854 
	C39.384995,117.316742 41.779408,123.124290 39.243126,128.689087 
	C27.520157,129.000000 16.038818,128.900055 4.561544,129.071701 
	C1.763888,129.113541 0.889717,128.739792 0.901486,125.572372 
	C1.051094,85.310295 1.035962,45.047371 0.927482,4.785025 
	C0.919350,1.766802 1.478307,0.890349 4.702570,0.909831 
	C31.155157,1.069664 57.609131,1.000000 84.531342,1.000000 
	C84.378418,4.204344 83.608780,7.306114 86.756554,9.928782 
	C88.284241,11.201616 88.083725,13.236367 86.971092,14.980784 
	C86.254951,16.103544 85.407028,17.139532 84.780220,18.321070 
	C82.173691,23.234398 83.036118,28.791035 86.985611,32.520805 
	C90.823128,36.144833 96.909470,37.047791 101.272041,33.894196 
	C104.875206,31.289562 107.861298,30.203382 111.274712,33.856392 
	C112.199615,34.846203 113.588554,35.536938 114.804329,34.304596 
	C116.270561,32.818390 115.080818,31.570213 114.095543,30.422049 
	C113.336655,29.537703 112.477051,28.744518 111.651352,27.921610 
	C107.216988,23.502214 107.202667,23.487862 102.582405,27.661190 
	C100.824493,29.249054 98.976082,30.629486 96.562271,30.998827 
	C93.271133,31.502409 90.574173,30.469254 88.875069,27.571035 
	C87.299805,24.884052 87.529388,22.154667 89.361443,19.601431 
	C89.652649,19.195601 89.998589,18.832644 90.325920,18.455217 
	C95.738388,12.214474 95.731308,12.220311 89.832375,6.085460 
	C88.574814,4.777603 87.088730,3.610776 86.873207,1.328655 
	C100.139053,1.000000 113.278427,1.045071 126.416809,0.951008 
	C128.369095,0.937030 129.073563,1.106956 129.068298,3.406834 
	C128.974258,44.486954 128.970352,85.567421 129.074829,126.647491 
	C129.080994,129.072678 128.203613,129.051178 126.362549,129.039200 
	C114.554550,128.962402 102.745811,129.000000 90.468658,129.000000 
	C87.850174,126.402496 88.782616,123.287872 88.585396,120.372963 
	C88.451241,118.390228 88.565788,116.388229 87.745316,113.622612 
	C86.669197,120.560722 82.009514,119.419868 77.396179,119.081268 
	C76.799240,118.885231 76.570198,118.783112 76.043457,118.456459 
	C74.375160,116.588608 74.997383,114.384056 73.978836,112.077484 
	C72.489159,117.763046 74.584442,123.338486 72.227394,128.730347 
	C68.969406,129.000000 65.938812,129.000000 62.454109,129.000000 
	C64.149239,124.245781 66.597176,119.565163 65.608025,114.050728 
	C65.495544,113.423607 65.641975,112.725166 64.842918,112.100517 
	C63.326443,117.555656 66.126633,125.065025 57.411491,127.115189 
	C53.174454,126.435837 52.192860,123.544952 51.750607,120.211525 
	C51.406662,117.619072 52.107754,114.938614 50.936928,112.437965 
	C50.367050,117.556328 49.093693,122.805824 53.904610,127.311348 
	C54.197037,127.854790 54.273270,128.093918 54.174751,128.666534 
z"/>
<path fill="#474646" opacity="1.000000" stroke="none" 
	d="
M86.666672,1.000000 
	C88.817879,4.864338 92.447746,7.104689 95.268013,10.053591 
	C97.036278,11.902504 97.311081,13.103353 95.268501,14.826043 
	C93.494156,16.322515 91.823967,17.997654 90.367783,19.803524 
	C88.067513,22.656206 88.089287,25.715651 90.679871,28.357918 
	C93.266136,30.995779 96.259804,31.002300 99.257095,28.896248 
	C99.661591,28.612028 99.978973,28.206795 100.369522,27.899282 
	C102.656982,26.098167 104.901909,21.528467 106.840988,22.600180 
	C110.902763,24.845089 114.136757,28.807138 117.245209,32.460140 
	C118.687134,34.154667 115.951149,35.070599 115.119240,36.327484 
	C114.175751,37.752953 113.036934,37.722210 111.904953,36.420574 
	C111.360062,35.794010 110.646378,35.302898 110.157524,34.640869 
	C107.956787,31.660509 106.096191,31.481848 103.036064,34.124893 
	C97.735268,38.703220 90.602592,37.941109 85.943329,33.044083 
	C80.990288,27.838284 80.513000,20.638861 85.420059,15.520614 
	C87.964104,12.867085 87.882736,11.208671 85.119179,9.348948 
	C81.290421,6.772408 81.748306,4.279294 85.032928,1.355210 
	C85.444443,1.000000 85.888893,1.000000 86.666672,1.000000 
z"/>
<path fill="#272727" opacity="1.000000" stroke="none" 
	d="
M39.416664,129.000000 
	C40.415222,123.623932 39.229000,118.148178 39.625095,112.733376 
	C39.737759,111.193268 39.054661,109.072075 41.806267,109.256744 
	C44.137753,109.413223 43.546894,111.306282 43.563046,112.674896 
	C43.623863,117.828667 43.594997,122.983505 43.799858,128.568970 
	C42.611111,129.000000 41.222221,129.000000 39.416664,129.000000 
z"/>
<path fill="#232323" opacity="1.000000" stroke="none" 
	d="
M56.802814,127.704910 
	C61.390240,126.003433 63.045059,122.792595 62.869408,118.360504 
	C62.797146,116.537102 62.770477,114.702408 62.890305,112.883865 
	C62.986626,111.422134 62.096123,109.183243 64.882828,109.285477 
	C67.547440,109.383240 66.817642,111.563820 66.782730,113.042076 
	C66.652458,118.558884 68.037277,124.595001 62.014847,128.646362 
	C60.611111,129.000000 59.222221,129.000000 57.416664,129.000000 
	C56.669952,128.721054 56.529907,128.372116 56.802814,127.704910 
z"/>
<path fill="#EBEBEB" opacity="1.000000" stroke="none" 
	d="
M75.803055,118.318817 
	C76.342461,117.992683 76.517159,117.999435 76.950401,118.049980 
	C78.128830,118.937469 79.277565,118.926132 80.423767,118.996689 
	C87.484406,119.431366 88.593277,121.121635 86.272873,128.639221 
	C82.969406,129.000000 79.938812,129.000000 76.454109,129.000000 
	C73.747101,125.662682 74.089622,122.184494 75.803055,118.318817 
z"/>
<path fill="#0C0C0C" opacity="1.000000" stroke="none" 
	d="
M86.399994,129.000000 
	C85.983818,128.675308 85.961090,128.350800 85.952431,128.025909 
	C85.761383,120.857147 85.762093,120.853584 78.568596,120.001587 
	C77.870560,119.918907 77.346786,119.690834 77.227676,118.503777 
	C78.532951,118.034912 79.886169,117.771729 81.175362,117.956161 
	C84.799255,118.474594 86.470879,117.301125 85.900528,113.411552 
	C85.684906,111.941101 85.211151,109.874756 87.936256,109.912567 
	C90.624847,109.949860 89.490051,112.053871 89.524139,113.220703 
	C89.669365,118.192139 89.590317,123.170113 89.796570,128.572845 
	C88.933327,129.000000 87.866661,129.000000 86.399994,129.000000 
z"/>
<path fill="#202020" opacity="1.000000" stroke="none" 
	d="
M56.888611,127.033646 
	C56.988590,127.850952 56.981892,128.234070 56.987595,128.808594 
	C56.555553,129.000000 56.111111,129.000000 55.333332,129.000000 
	C54.754456,128.765457 54.492718,128.550827 54.001808,128.216385 
	C49.840286,126.625984 49.066154,123.277161 48.890289,119.669098 
	C48.760906,117.014671 48.837200,114.349289 48.855732,111.689018 
	C48.863903,110.516014 48.829998,109.299004 50.557671,109.248558 
	C52.339912,109.196510 52.835533,110.153610 52.814922,111.740234 
	C52.780373,114.399971 52.854534,117.060997 52.832588,119.721054 
	C52.807190,122.799423 53.849010,125.234489 56.888611,127.033646 
z"/>
<path fill="#1B1B1B" opacity="1.000000" stroke="none" 
	d="
M76.091660,117.545738 
	C76.086533,121.352356 76.005287,124.718773 75.962021,128.542603 
	C74.933327,129.000000 73.866661,129.000000 72.399994,129.000000 
	C72.012833,123.562553 72.007759,118.124977 72.049751,112.687752 
	C72.061836,111.123642 71.564850,109.103882 74.256310,109.281853 
	C76.628395,109.438705 75.884552,111.323059 75.975128,112.657547 
	C76.075371,114.134315 76.009224,115.622391 76.091660,117.545738 
z"/>
<path fill="#232323" opacity="1.000000" stroke="none" 
	d="
M53.913383,128.289490 
	C54.105713,128.227493 54.420128,128.381332 54.867271,128.767593 
	C55.000000,129.000000 54.500000,129.000000 54.250000,129.000000 
	C54.000000,129.000000 54.035473,128.505325 53.913383,128.289490 
z"/>
<path fill="#0F0F0F" opacity="1.000000" stroke="none" 
	d="
M28.423590,69.459206 
	C34.897755,64.739655 41.128529,60.293552 47.260937,55.715687 
	C49.424034,54.100925 50.928627,52.806747 53.156025,56.002811 
	C55.575951,59.475132 52.531368,59.995934 50.964489,61.157013 
	C41.875107,67.892357 32.742451,74.571732 23.528275,81.135033 
	C19.773012,83.809921 17.833889,87.129929 18.701187,91.754158 
	C19.456720,95.782501 22.045761,98.206238 25.956604,99.076920 
	C30.684643,100.129532 34.225929,98.497192 37.073959,94.436859 
	C43.665176,85.040016 50.533913,75.837944 57.279613,66.549255 
	C58.554794,64.793365 59.372894,62.951736 62.241470,65.032463 
	C65.071480,67.085205 64.164749,68.449493 62.624050,70.546844 
	C55.630993,80.066528 48.797138,89.703171 41.802200,99.221451 
	C37.634270,104.892929 31.734110,106.783386 25.057919,105.545830 
	C18.159981,104.267166 13.903331,99.585373 12.323133,92.950974 
	C10.760792,86.391563 12.881580,80.801704 18.456783,76.731293 
	C21.681807,74.376732 24.913029,72.030663 28.423590,69.459206 
z"/>
<path fill="#FF1010" opacity="1.000000" stroke="none" 
	d="
M86.978600,100.040298 
	C81.431450,94.493774 76.212097,89.119690 70.800270,83.946968 
	C68.870193,82.102158 69.060707,81.010971 70.831772,79.182648 
	C72.740578,77.212120 73.866516,77.511101 75.615402,79.324409 
	C81.043915,84.952858 86.603271,90.456947 92.179420,95.940590 
	C97.166603,100.845024 102.486092,101.232903 106.684944,97.128281 
	C111.148140,92.765274 110.886009,87.335197 105.883636,82.271774 
	C100.504059,76.826546 95.100616,71.403854 89.636642,66.043648 
	C87.969521,64.408188 86.642487,63.280239 89.051346,60.915501 
	C91.251167,58.755955 92.377022,59.334488 94.177719,61.205612 
	C99.369232,66.600151 104.744118,71.817795 110.021202,77.130531 
	C117.762405,84.924019 118.509499,94.662079 111.919167,101.488541 
	C105.056580,108.597015 95.209793,108.119850 86.978600,100.040298 
z"/>
<path fill="#130E0E" opacity="1.000000" stroke="none" 
	d="
M82.713081,13.768804 
	C80.625748,16.137091 78.572014,18.087502 76.726410,20.218203 
	C70.875557,26.972883 71.165939,36.411186 77.318504,42.247124 
	C84.185608,48.760822 93.409889,48.870586 100.113411,42.502373 
	C101.317787,41.358238 102.518288,40.202427 103.630173,38.970417 
	C105.081818,37.361954 106.208138,36.216160 108.358566,38.458252 
	C110.302460,40.485004 110.296318,41.567211 108.356880,43.627117 
	C103.262032,49.038403 98.237572,54.129932 89.994339,54.163624 
	C80.283707,54.203316 71.581810,49.007687 67.820320,40.072552 
	C63.943062,30.862429 65.772141,22.534071 72.426079,15.190350 
	C73.094749,14.452369 73.829590,13.774398 74.532875,13.067735 
	C78.827690,8.752299 78.827606,8.752215 82.713081,13.768804 
z"/>
<path fill="#373737" opacity="1.000000" stroke="none" 
	d="
M27.269783,24.592297 
	C22.461260,25.255787 16.711540,22.198002 15.003919,18.656744 
	C14.268073,17.130749 15.295912,16.537508 16.047041,15.751123 
	C18.110958,13.590332 20.063366,11.283217 22.355263,9.391925 
	C24.382734,7.718839 25.847559,3.360237 28.466642,4.802454 
	C32.220364,6.869470 35.656216,10.344323 35.287094,15.578200 
	C35.217636,16.563080 34.956947,17.534472 34.484737,18.784485 
	C31.205669,19.869160 29.135998,21.830790 27.269783,24.592297 
z"/>
<path fill="#0F0F0F" opacity="1.000000" stroke="none" 
	d="
M27.407394,24.867306 
	C27.669035,21.174187 28.975721,18.237688 33.863319,18.942654 
	C35.473614,23.102419 39.380028,24.818363 41.964165,27.710100 
	C44.385216,30.419340 47.142593,32.831486 49.792194,35.331734 
	C51.393017,36.842316 52.971077,37.891693 50.569794,40.416817 
	C48.139771,42.972160 46.926010,41.890972 45.077274,40.031101 
	C40.758629,35.686436 36.304493,31.475294 31.860779,27.256907 
	C30.708921,26.163458 29.805681,24.523167 27.407394,24.867306 
z"/>
<path fill="#FF0C0C" opacity="1.000000" stroke="none" 
	d="
M78.828239,72.857010 
	C81.257912,68.270683 83.650055,68.242744 86.888260,72.051041 
	C90.427055,76.212845 94.461327,79.976730 98.480560,83.696991 
	C100.565979,85.627289 99.983620,86.778458 98.275925,88.486122 
	C96.624573,90.137428 95.541550,90.316345 93.854233,88.533699 
	C88.951065,83.353493 83.892426,78.320435 78.828239,72.857010 
z"/>
<path fill="#0E0E0E" opacity="1.000000" stroke="none" 
	d="
M72.982094,57.293419 
	C69.618233,63.060658 69.617111,63.061794 65.211647,58.702103 
	C63.088272,56.600788 61.013607,54.447819 58.835369,52.405163 
	C57.166653,50.840313 55.847618,49.758381 58.170155,47.290821 
	C60.687050,44.616768 61.885429,46.015923 63.627316,47.834522 
	C66.611221,50.949848 69.732063,53.934013 72.982094,57.293419 
z"/>
<path fill="#464646" opacity="1.000000" stroke="none" 
	d="
M30.540136,86.025726 
	C31.590338,88.512566 33.363407,91.243553 29.636179,92.512138 
	C28.373234,92.941978 26.478251,93.199570 25.419634,92.004089 
	C24.266439,90.701797 24.567247,88.735512 25.047110,87.293030 
	C25.914949,84.684273 28.391376,86.309212 30.540136,86.025726 
z"/>
<path fill="#D1D1D1" opacity="1.000000" stroke="none" 
	d="
M24.376110,18.441803 
	C24.074045,17.762571 23.891134,17.102892 24.112869,16.911150 
	C25.379379,15.815958 25.954582,13.638927 28.171991,14.040337 
	C28.498083,14.099366 28.929127,15.158690 28.837851,15.670744 
	C28.434443,17.933802 27.093216,19.093958 24.376110,18.441803 
z"/>
</svg>